<?xml version="1.0" standalone="no"?>
<!DOCTYPE svg PUBLIC "-//W3C//DTD SVG 20010904//EN"
 "http://www.w3.org/TR/2001/REC-SVG-20010904/DTD/svg10.dtd">
<svg version="1.0" xmlns="http://www.w3.org/2000/svg"
 width="500.000000pt" height="500.000000pt" viewBox="0 0 500.000000 500.000000"
 preserveAspectRatio="xMidYMid meet">
<metadata>
Created by potrace 1.14, written by Peter Selinger 2001-2017
</metadata>
<g transform="translate(0.000000,500.000000) scale(0.100000,-0.100000)"
fill="#000000" stroke="none">
<path d="M2380 4873 c-486 -27 -955 -201 -1333 -494 -124 -97 -294 -263 -392
-384 -232 -287 -405 -648 -478 -1000 -38 -180 -50 -301 -50 -500 1 -910 516
-1728 1338 -2126 323 -156 596 -223 955 -236 496 -17 960 113 1376 385 603
395 995 1044 1065 1765 14 147 7 429 -16 572 -102 664 -479 1254 -1038 1625
-346 230 -727 359 -1148 389 -140 10 -162 11 -279 4z m350 -263 c634 -77 1181
-414 1533 -945 83 -125 190 -347 237 -491 204 -627 114 -1296 -247 -1838 -592
-885 -1737 -1194 -2691 -726 -655 321 -1090 941 -1173 1670 -15 134 -6 453 16
575 81 444 265 807 570 1124 342 355 814 585 1305 634 81 8 372 6 450 -3z"/>
<path d="M2375 4594 c-243 -24 -367 -48 -540 -106 -668 -222 -1189 -780 -1365
-1463 -83 -322 -86 -698 -9 -1010 55 -223 167 -480 286 -660 352 -531 910
-870 1542 -936 139 -14 407 -7 541 16 893 149 1588 844 1735 1735 22 134 30
402 16 535 -28 262 -94 492 -205 720 -302 617 -895 1049 -1576 1149 -107 16
-352 27 -425 20z m445 -163 c683 -119 1244 -574 1500 -1219 169 -426 174 -950
14 -1379 -98 -265 -234 -480 -429 -682 -216 -224 -450 -377 -738 -485 -320
-120 -712 -149 -1057 -80 -430 87 -825 322 -1108 659 -642 765 -606 1890 83
2604 61 62 144 141 185 174 295 238 657 386 1042 427 124 13 376 4 508 -19z"/>
<path d="M2318 4319 c-715 -69 -1332 -559 -1557 -1235 -227 -682 -50 -1409
466 -1906 227 -217 505 -374 796 -449 147 -37 239 -50 402 -56 323 -11 587 44
870 182 551 269 922 781 1011 1395 22 153 14 449 -15 594 -191 932 -1038 1565
-1973 1475z m262 -116 c0 -3 -8 -15 -17 -26 -17 -18 -18 -64 -19 -656 -1 -581
-2 -639 -18 -672 -14 -30 -24 -38 -54 -42 -20 -4 -38 -5 -40 -3 -2 3 -5 1335
-2 1399 0 9 150 10 150 0z m-204 -25 c-11 -19 -13 -122 -12 -608 1 -322 0
-591 -2 -597 -6 -20 -22 -15 -22 7 0 11 -4 28 -9 38 -9 18 -12 24 -56 137 -16
39 -32 74 -37 80 -4 5 -8 17 -8 27 0 10 -4 26 -9 36 -5 9 -14 31 -21 47 -7 17
-16 38 -21 47 -5 10 -9 22 -9 28 0 5 -12 35 -26 67 -34 75 -36 80 -80 198 -21
55 -41 102 -46 103 -4 2 -8 12 -8 23 0 11 -9 41 -21 67 -45 102 -88 216 -83
223 6 10 214 68 299 83 44 8 104 15 133 15 52 1 52 1 38 -21z m489 -8 c273
-60 560 -202 749 -371 l59 -53 -29 -8 c-16 -4 -48 -25 -70 -45 -23 -21 -70
-63 -105 -95 -35 -31 -76 -67 -90 -80 -14 -12 -56 -50 -93 -83 -38 -33 -78
-69 -91 -80 -12 -11 -51 -45 -85 -75 -35 -30 -74 -64 -86 -75 -12 -11 -52 -47
-90 -80 -37 -33 -78 -69 -90 -80 -12 -11 -52 -47 -90 -80 -37 -33 -81 -72 -98
-87 -33 -30 -46 -35 -46 -17 0 7 131 273 290 593 160 320 290 584 290 588 0 4
-21 -2 -46 -14 -44 -22 -48 -27 -128 -193 -46 -93 -86 -177 -90 -185 -3 -8
-10 -23 -16 -32 -5 -10 -15 -26 -20 -35 -6 -10 -15 -29 -21 -43 -27 -63 -253
-510 -256 -506 -3 2 -6 1064 -3 1155 0 19 120 10 255 -19z m-997 -116 c-10
-37 -10 -36 47 -169 7 -16 32 -79 55 -140 24 -60 49 -126 57 -145 15 -34 24
-57 42 -102 5 -13 25 -64 45 -113 20 -50 36 -96 36 -103 0 -7 5 -12 10 -12 6
0 10 -9 10 -20 0 -11 4 -28 9 -38 10 -19 17 -37 57 -137 15 -38 31 -74 36 -80
4 -5 8 -17 8 -27 0 -12 -164 145 -431 412 -237 237 -429 435 -427 441 7 22
192 143 311 204 70 36 132 65 136 65 6 0 5 -16 -1 -36z m-8 -778 c270 -269
490 -495 490 -503 0 -7 -4 -13 -10 -13 -5 0 -28 -16 -49 -36 l-40 -35 -478
478 c-263 263 -484 486 -492 496 -13 16 -10 23 30 63 24 24 47 43 52 41 4 -1
228 -222 497 -491z m1897 385 l42 -48 -61 -54 c-34 -30 -73 -65 -87 -77 -14
-13 -55 -49 -90 -80 -35 -32 -73 -66 -85 -77 -29 -26 -144 -127 -176 -155 -32
-28 -147 -129 -176 -155 -12 -11 -52 -47 -90 -80 -37 -33 -78 -69 -90 -80 -12
-11 -52 -47 -90 -80 -37 -33 -76 -68 -87 -78 -17 -17 -20 -16 -72 30 l-53 48
38 35 c21 19 68 62 106 95 73 65 144 128 180 160 12 11 50 45 85 75 35 30 75
66 90 80 15 14 56 50 90 80 35 30 76 66 91 80 15 14 48 43 73 65 25 22 63 56
84 75 21 19 67 60 102 90 35 30 72 65 84 76 30 33 46 29 92 -25z m-2493 -43
c6 -41 31 -67 436 -472 375 -375 456 -460 423 -444 -5 2 -30 14 -58 27 -27 12
-62 29 -77 37 -15 8 -30 15 -33 15 -7 0 -70 26 -143 60 -35 16 -68 29 -73 29
-5 0 -17 4 -27 9 -16 9 -66 31 -142 64 -19 8 -60 26 -90 40 -30 13 -73 31 -95
38 -22 7 -47 19 -56 26 -8 7 -21 13 -27 13 -7 0 -20 4 -30 9 -20 11 -153 69
-207 91 -48 20 -115 52 -115 56 0 13 69 140 115 209 58 90 172 235 185 235 4
0 11 -19 14 -42z m2656 -164 c67 -100 139 -231 154 -281 6 -20 4 -21 -34 -16
-22 3 -45 1 -52 -4 -7 -6 -47 -23 -88 -38 -41 -15 -79 -32 -85 -36 -5 -5 -17
-9 -27 -9 -10 0 -18 -4 -18 -10 0 -5 -10 -10 -23 -10 -13 0 -27 -4 -32 -9 -6
-5 -37 -18 -70 -31 -33 -12 -76 -28 -95 -37 -19 -8 -44 -19 -55 -23 -11 -4
-36 -15 -57 -24 -20 -9 -39 -16 -42 -16 -3 0 -28 -9 -54 -21 -26 -12 -56 -25
-67 -29 -79 -32 -135 -54 -165 -67 -19 -8 -44 -19 -55 -23 -112 -43 -162 -65
-175 -74 -13 -10 -13 -9 0 9 8 11 18 22 21 25 8 6 134 117 165 145 12 11 50
45 85 75 35 30 75 66 90 80 15 14 56 50 90 80 35 30 76 66 91 80 15 14 48 43
74 65 25 22 65 58 89 80 25 22 70 63 102 90 31 28 77 69 102 92 25 24 49 43
53 43 4 0 39 -48 78 -106z m-2901 -346 c25 -11 55 -24 66 -28 11 -5 40 -17 65
-28 47 -21 111 -48 145 -62 11 -5 46 -20 77 -34 31 -14 59 -26 62 -26 3 0 31
-12 63 -26 32 -14 67 -30 78 -34 11 -5 40 -17 65 -28 25 -11 61 -27 80 -35 19
-8 60 -26 90 -39 30 -14 71 -31 90 -38 38 -14 129 -54 171 -76 14 -7 29 -11
33 -9 3 3 4 2 1 -1 -6 -9 -1294 -9 -1302 0 -20 20 43 316 98 458 l32 81 20
-27 c11 -15 40 -36 66 -48z m3105 -65 c37 -114 55 -190 71 -305 20 -138 20
-133 -8 -115 -20 13 -108 15 -645 14 -342 0 -625 3 -629 7 -3 3 1 6 9 6 14 0
99 33 189 73 19 8 64 27 102 41 37 14 86 35 110 45 23 10 87 36 142 57 55 22
102 42 103 46 2 5 14 8 26 8 12 0 26 4 32 9 5 4 43 21 84 36 41 15 79 32 85
36 5 5 17 9 27 9 10 0 18 5 18 10 0 6 8 10 18 10 10 0 36 8 58 19 21 10 63 26
92 37 28 10 52 22 52 26 0 4 9 8 19 8 15 0 25 -17 45 -77z m-1937 -472 c16 -1
6 -101 -12 -120 -11 -11 -129 -13 -682 -13 -367 0 -676 1 -685 1 -15 1 -18 11
-18 69 l0 67 693 -2 c380 -1 697 -2 704 -2z m2021 -86 l3 -87 -28 20 c-27 19
-46 20 -678 20 -357 0 -662 1 -677 1 -28 1 -28 2 -28 65 0 35 4 66 10 68 5 2
322 2 702 2 l693 -1 3 -88z m-2161 -120 c-2 -5 -13 -11 -25 -13 -12 -2 -22 -8
-22 -13 0 -5 -10 -9 -23 -9 -13 0 -27 -4 -32 -9 -6 -5 -37 -18 -70 -31 -33
-12 -76 -28 -95 -37 -19 -8 -44 -19 -55 -23 -11 -4 -36 -15 -57 -24 -20 -9
-39 -16 -42 -16 -3 0 -28 -9 -54 -21 -26 -12 -56 -25 -67 -29 -79 -32 -135
-54 -165 -67 -19 -8 -44 -19 -55 -23 -115 -45 -161 -64 -169 -72 -6 -4 -16 -8
-23 -8 -7 0 -32 -9 -56 -19 -81 -36 -130 -52 -137 -44 -25 27 -85 274 -96 391
l-7 71 84 3 c226 8 1169 2 1166 -7z m2155 6 c27 -3 -75 -469 -110 -503 -4 -3
-24 2 -44 12 -21 10 -79 35 -130 55 -95 38 -183 77 -228 100 -14 7 -28 14 -32
15 -11 1 -73 28 -138 57 -30 14 -73 32 -95 40 -22 8 -65 27 -95 40 -30 14 -64
29 -75 33 -11 5 -46 20 -77 34 -31 14 -60 26 -63 26 -3 0 -32 12 -63 26 -68
31 -91 40 -115 48 -10 3 -16 9 -14 13 4 6 1219 9 1279 4z m-1958 -36 c11 -17
14 -30 7 -42 -5 -10 -12 -25 -15 -33 -20 -49 -93 -120 -475 -455 -32 -28 -81
-72 -152 -135 -16 -14 -49 -43 -75 -65 -25 -22 -58 -51 -73 -63 -68 -61 -149
-134 -180 -162 -19 -16 -39 -29 -45 -27 -5 2 -28 24 -49 50 l-40 46 52 48 c28
26 61 57 74 68 28 24 150 132 181 160 12 11 51 45 86 75 34 30 75 66 90 80 15
14 55 50 90 80 106 92 211 186 287 255 93 85 127 111 167 126 54 22 51 23 70
-6z m1032 -474 c272 -272 494 -500 494 -506 0 -6 -20 -30 -44 -54 l-44 -43
-500 500 -501 500 26 23 c13 13 32 36 41 52 9 15 20 26 25 24 4 -1 231 -225
503 -496z m-276 399 c11 -5 28 -14 38 -19 11 -5 59 -26 108 -46 117 -48 155
-65 177 -76 9 -5 51 -23 91 -39 41 -16 96 -39 123 -51 26 -11 57 -25 68 -29
11 -5 40 -17 65 -28 25 -11 61 -27 80 -35 19 -8 61 -27 92 -41 31 -14 59 -26
62 -26 3 0 40 -16 81 -35 68 -32 75 -38 69 -58 -17 -59 -142 -261 -218 -351
l-40 -49 -8 36 c-6 31 -70 99 -413 442 -223 222 -405 407 -405 410 0 7 8 6 30
-5z m-1085 -39 c-11 -10 -67 -60 -125 -111 -58 -51 -134 -118 -169 -149 -35
-31 -81 -72 -102 -91 -21 -19 -60 -53 -85 -75 -26 -22 -65 -57 -88 -77 -22
-20 -61 -55 -86 -77 -25 -22 -67 -60 -95 -85 -27 -25 -53 -46 -57 -46 -11 0
-118 179 -154 258 -24 51 -30 72 -20 72 12 0 67 22 191 75 17 7 60 25 98 39
37 14 86 35 110 45 23 10 72 31 110 45 37 14 86 35 110 45 23 10 87 36 142 57
55 22 102 42 103 46 2 5 11 8 21 8 10 0 35 9 57 20 50 25 64 25 39 1z m447 -3
c6 -21 2 -1418 -4 -1424 -12 -11 -265 38 -373 73 -130 41 -305 121 -305 138 0
7 6 18 13 24 8 6 20 29 27 51 7 22 19 45 27 51 7 6 13 19 13 29 0 10 6 23 13
29 8 6 20 29 27 51 7 22 19 45 27 51 7 6 13 16 13 21 0 6 93 196 206 424 155
311 216 423 246 454 40 41 63 50 70 28z m181 -710 c-1 -381 -2 -699 -2 -705
-1 -9 -20 -13 -58 -13 l-58 0 2 688 c1 378 2 695 2 705 1 14 11 17 59 17 l57
0 -2 -692z m613 182 l476 -475 -49 -43 c-70 -62 -197 -146 -309 -202 -53 -28
-100 -50 -104 -50 -8 0 -40 67 -40 85 0 8 -4 15 -10 15 -5 0 -10 11 -10 25 0
14 -4 25 -10 25 -5 0 -10 9 -10 20 0 11 -4 28 -9 38 -9 18 -12 24 -56 137 -16
39 -32 74 -37 80 -4 5 -8 17 -8 27 0 10 -4 26 -9 36 -11 21 -24 54 -45 109 -8
23 -24 61 -35 85 -10 24 -38 93 -61 153 -23 61 -49 126 -57 145 -22 52 -29 68
-59 148 -15 40 -31 75 -36 78 -4 3 -8 15 -8 26 0 12 2 19 5 17 2 -2 219 -218
481 -479z m-526 391 c0 -10 3 -21 7 -24 3 -4 14 -28 23 -54 10 -27 26 -68 38
-93 11 -25 39 -94 62 -155 23 -60 48 -123 55 -140 7 -16 32 -79 55 -140 23
-60 49 -126 57 -145 20 -46 28 -67 47 -117 8 -23 24 -61 35 -85 10 -24 24 -59
31 -78 11 -33 17 -48 39 -102 23 -58 25 -56 -59 -82 -93 -30 -247 -62 -342
-71 -67 -7 -68 -7 -68 16 -1 192 -1 1286 -1 1292 2 16 21 -5 21 -22z m-538
-103 c-9 -24 -118 -246 -242 -495 -166 -334 -229 -451 -240 -447 -46 16 -360
272 -360 293 0 5 23 11 51 15 41 6 58 15 94 49 24 23 64 59 88 79 24 20 54 47
68 60 14 13 56 50 93 83 38 33 78 69 91 80 12 11 50 45 85 75 35 30 75 66 90
80 15 14 56 50 91 80 35 30 70 63 79 72 26 28 30 20 12 -24z"/>
</g>
</svg>
